<svg width="56" height="56" viewBox="0 0 56 56" fill="none" xmlns="http://www.w3.org/2000/svg">
<path d="M4.66669 28C4.66606 23.6183 5.89942 19.3249 8.22555 15.6116C10.5517 11.8983 13.8765 8.91515 17.8194 7.00373C21.7622 5.0923 26.1636 4.3299 30.5197 4.80381C34.8757 5.27773 39.0102 6.96881 42.4497 9.68341H38.9004C38.593 9.68638 38.2991 9.81061 38.0827 10.0291C37.8664 10.2475 37.745 10.5426 37.745 10.8501C37.745 11.1575 37.8664 11.4526 38.0827 11.671C38.2991 11.8895 38.593 12.0137 38.9004 12.0167H45.5C45.8094 12.0167 46.1062 11.8938 46.325 11.675C46.5438 11.4562 46.6667 11.1594 46.6667 10.85V4.2502C46.6682 4.09605 46.6391 3.94312 46.5812 3.80027C46.5232 3.65741 46.4375 3.52746 46.329 3.41793C46.2205 3.30839 46.0914 3.22144 45.9491 3.1621C45.8068 3.10276 45.6542 3.0722 45.5 3.0722C45.3459 3.0722 45.1932 3.10276 45.051 3.1621C44.9087 3.22144 44.7796 3.30839 44.6711 3.41793C44.5626 3.52746 44.4769 3.65741 44.4189 3.80027C44.361 3.94312 44.3319 4.09605 44.3334 4.2502V8.20083C39.2462 4.00425 32.7389 1.92684 26.161 2.39946C19.5832 2.87208 13.4397 5.85846 9.00475 10.7392C4.56976 15.62 2.1836 22.0205 2.3412 28.6134C2.4988 35.2063 5.18804 41.4855 9.85118 46.1488C9.95904 46.2592 10.0877 46.3471 10.2298 46.4074C10.3719 46.4676 10.5245 46.4992 10.6788 46.5C10.8331 46.5009 10.9861 46.4712 11.1289 46.4125C11.2716 46.3539 11.4013 46.2675 11.5104 46.1584C11.6196 46.0492 11.706 45.9195 11.7646 45.7768C11.8233 45.634 11.853 45.4811 11.8521 45.3267C11.8512 45.1724 11.8197 45.0198 11.7594 44.8777C11.6991 44.7357 11.6113 44.607 11.5009 44.4991C9.3274 42.3375 7.60424 39.7662 6.43116 36.9341C5.25807 34.102 4.65834 31.0654 4.66669 28ZM17.8031 48.9949C17.1377 48.671 16.488 48.3159 15.8562 47.9307C15.5921 47.7695 15.2748 47.7198 14.9741 47.7926C14.6733 47.8653 14.4138 48.0546 14.2526 48.3186C14.0914 48.5827 14.0417 48.9001 14.1144 49.2008C14.1872 49.5015 14.3764 49.761 14.6405 49.9222C15.3359 50.3464 16.051 50.7373 16.7836 51.0934C16.9214 51.1604 17.071 51.1995 17.2239 51.2087C17.3769 51.2178 17.5301 51.1967 17.6749 51.1466C17.8197 51.0965 17.9531 51.0184 18.0677 50.9167C18.1823 50.8151 18.2758 50.6918 18.3427 50.554C18.4097 50.4162 18.4488 50.2666 18.458 50.1136C18.4671 49.9607 18.446 49.8075 18.3959 49.6627C18.3458 49.5179 18.2677 49.3844 18.166 49.2698C18.0643 49.1553 17.9411 49.0618 17.8033 48.9949H17.8031ZM49.0051 17.8247C49.0719 17.9626 49.1652 18.086 49.2797 18.1878C49.3942 18.2897 49.5276 18.368 49.6723 18.4182C49.817 18.4685 49.9702 18.4898 50.1232 18.4808C50.2761 18.4719 50.4258 18.4329 50.5637 18.3661C50.7016 18.2994 50.825 18.2061 50.9268 18.0916C51.0287 17.9771 51.1069 17.8437 51.1572 17.699C51.2075 17.5542 51.2288 17.401 51.2198 17.2481C51.2109 17.0951 51.1719 16.9454 51.1051 16.8075C50.7501 16.0749 50.3604 15.3595 49.9373 14.6638C49.8577 14.5329 49.7531 14.4189 49.6294 14.3285C49.5057 14.238 49.3654 14.1728 49.2165 14.1365C48.9159 14.0633 48.5984 14.1125 48.334 14.2733C48.0696 14.4342 47.8799 14.6934 47.8067 14.9941C47.7335 15.2948 47.7827 15.6123 47.9435 15.8767C48.3279 16.5089 48.6822 17.159 49.0051 17.8247ZM30.7679 51.1699C30.0314 51.2574 29.2862 51.3095 28.5526 51.3272C28.2488 51.3388 27.9615 51.4686 27.7519 51.6888C27.5424 51.9091 27.4271 52.2025 27.4306 52.5065C27.4342 52.8105 27.5563 53.1011 27.7709 53.3164C27.9855 53.5318 28.2757 53.6548 28.5797 53.6594C28.5888 53.6594 28.5985 53.6594 28.6076 53.6588C29.4142 53.64 30.2328 53.5823 31.0417 53.4868C31.3487 53.4502 31.6287 53.2932 31.8201 53.0504C32.0114 52.8075 32.0986 52.4986 32.0623 52.1916C32.0261 51.8845 31.8695 51.6044 31.6268 51.4127C31.3842 51.2211 31.0754 51.1336 30.7683 51.1695L30.7679 51.1699ZM24.1281 51.0115C23.3981 50.8895 22.6744 50.7325 21.9594 50.5412C21.6604 50.4613 21.3419 50.5034 21.074 50.6583C20.8061 50.8132 20.6106 51.0683 20.5307 51.3673C20.4508 51.6663 20.4929 51.9848 20.6478 52.2527C20.8028 52.5206 21.0578 52.716 21.3568 52.796C22.1439 53.006 22.9406 53.1785 23.7442 53.3127C23.8953 53.3379 24.0499 53.3331 24.1992 53.2985C24.3484 53.264 24.4894 53.2004 24.6141 53.1113C24.7388 53.0223 24.8447 52.9096 24.9258 52.7796C25.007 52.6497 25.0617 52.505 25.0869 52.3539C25.1121 52.2028 25.1073 52.0482 25.0728 51.8989C25.0382 51.7496 24.9746 51.6086 24.8856 51.484C24.7966 51.3593 24.6838 51.2534 24.5539 51.1722C24.4239 51.0911 24.2792 51.0364 24.1281 51.0112V51.0115ZM52.5211 27.4375C52.2118 27.43 51.9122 27.5456 51.6881 27.7588C51.464 27.9721 51.3337 28.2657 51.326 28.575C51.3071 29.3155 51.2537 30.0548 51.1658 30.7904C51.1293 31.0976 51.2162 31.4069 51.4075 31.6501C51.5988 31.8933 51.8788 32.0506 52.1861 32.0875C52.2326 32.0927 52.2794 32.0953 52.3262 32.0954C52.6113 32.095 52.8865 31.9902 53.0996 31.8008C53.3128 31.6113 53.4492 31.3504 53.4832 31.0673C53.5793 30.2591 53.6377 29.4468 53.6582 28.6332C53.6621 28.48 53.6357 28.3275 53.5807 28.1845C53.5257 28.0415 53.443 27.9108 53.3374 27.7997C53.2318 27.6887 53.1053 27.5995 52.9653 27.5374C52.8252 27.4752 52.6743 27.4413 52.5211 27.4375ZM48.9402 40.7821C48.6841 40.6086 48.3697 40.5436 48.0658 40.6016C47.762 40.6596 47.4936 40.8358 47.3194 41.0914C46.9031 41.704 46.4581 42.2965 45.9858 42.867C45.8858 42.9847 45.8101 43.1211 45.7632 43.2682C45.7163 43.4154 45.6991 43.5704 45.7126 43.7242C45.726 43.8781 45.7699 44.0277 45.8417 44.1645C45.9135 44.3013 46.0117 44.4224 46.1307 44.5209C46.2496 44.6194 46.387 44.6933 46.5347 44.7383C46.6825 44.7833 46.8377 44.7985 46.9914 44.783C47.1451 44.7675 47.2941 44.7217 47.4299 44.6481C47.5657 44.5745 47.6856 44.4748 47.7825 44.3545C48.3021 43.7273 48.7916 43.0759 49.2494 42.4023C49.3354 42.2756 49.3957 42.1332 49.4268 41.9832C49.4578 41.8332 49.459 41.6786 49.4303 41.5282C49.4016 41.3777 49.3435 41.2344 49.2594 41.1064C49.1753 40.9784 49.0668 40.8682 48.9402 40.7821ZM50.5478 21.981C50.7379 22.6963 50.894 23.4201 51.0154 24.1502C51.0606 24.4226 51.201 24.6701 51.4114 24.8487C51.6219 25.0274 51.8889 25.1257 52.165 25.1261C52.2293 25.1259 52.2935 25.1206 52.3569 25.1101C52.5081 25.085 52.6528 25.0304 52.7829 24.9494C52.913 24.8684 53.0258 24.7625 53.1149 24.6379C53.2041 24.5132 53.2678 24.3723 53.3024 24.223C53.337 24.0737 53.3419 23.9191 53.3168 23.768C53.1835 22.9644 53.0119 22.1677 52.8027 21.3805C52.7231 21.0815 52.528 20.8264 52.2602 20.6713C51.9925 20.5162 51.6741 20.4737 51.3751 20.5534C51.0761 20.633 50.821 20.8281 50.6659 21.0959C50.5108 21.3636 50.4683 21.682 50.548 21.981H50.5478ZM42.8471 46.0019C42.2767 46.4738 41.6841 46.9182 41.0715 47.3338C40.9447 47.4197 40.8361 47.5298 40.7518 47.6578C40.6676 47.7857 40.6093 47.929 40.5805 48.0794C40.5516 48.2299 40.5526 48.3845 40.5835 48.5346C40.6144 48.6846 40.6745 48.8271 40.7605 48.9539C40.8465 49.0807 40.9565 49.1893 41.0845 49.2736C41.2124 49.3578 41.3557 49.4161 41.5061 49.4449C41.6566 49.4738 41.8112 49.4728 41.9613 49.4419C42.1113 49.411 42.2538 49.3509 42.3806 49.2649C43.0544 48.808 43.7063 48.3194 44.3339 47.8009C44.5725 47.6038 44.723 47.3199 44.7522 47.0118C44.7815 46.7037 44.6872 46.3966 44.49 46.158C44.2928 45.9194 44.009 45.769 43.7009 45.7397C43.3928 45.7104 43.0857 45.8048 42.8471 46.0019ZM51.6888 34.3672C51.394 34.2735 51.0741 34.3007 50.7994 34.4426C50.5246 34.5846 50.3174 34.8297 50.2231 35.1242C49.9979 35.8291 49.7392 36.5228 49.4478 37.2029C49.3841 37.3442 49.3493 37.4968 49.3453 37.6517C49.3412 37.8066 49.3681 37.9607 49.4243 38.1051C49.4805 38.2495 49.565 38.3813 49.6726 38.4927C49.7803 38.6041 49.9092 38.6929 50.0516 38.754C50.194 38.8151 50.3471 38.8472 50.5021 38.8484C50.657 38.8496 50.8107 38.82 50.954 38.7612C51.0974 38.7024 51.2276 38.6156 51.3371 38.5059C51.4465 38.3962 51.533 38.2658 51.5915 38.1223C51.913 37.3734 52.198 36.6094 52.4454 35.8329C52.492 35.687 52.5095 35.5333 52.4967 35.3806C52.4839 35.228 52.4411 35.0793 52.3708 34.9432C52.3006 34.8071 52.2042 34.6861 52.0871 34.5873C51.9701 34.4885 51.8347 34.4136 51.6888 34.3672ZM37.1806 49.4574C36.5002 49.7484 35.8064 50.0068 35.1014 50.2316C34.9554 50.2781 34.8201 50.3529 34.703 50.4518C34.586 50.5506 34.4896 50.6715 34.4193 50.8076C34.349 50.9437 34.3062 51.0924 34.2933 51.245C34.2804 51.3977 34.2978 51.5513 34.3443 51.6973C34.3908 51.8432 34.4656 51.9786 34.5645 52.0956C34.6633 52.2127 34.7842 52.3091 34.9204 52.3794C35.0565 52.4497 35.2051 52.4925 35.3577 52.5054C35.5104 52.5182 35.6641 52.5009 35.81 52.4544C36.5861 52.2071 37.3499 51.923 38.0989 51.6028C38.3834 51.481 38.6079 51.2511 38.7229 50.9638C38.8379 50.6765 38.8341 50.3552 38.7122 50.0707C38.5904 49.7862 38.3605 49.5618 38.0732 49.4468C37.7859 49.3317 37.4647 49.3356 37.1802 49.4574H37.1806Z" fill="#CCCCD0"/>
<path d="M18.1335 25.6165C18.1335 23.7044 16.8762 22.1723 14.9303 21.7129C13.8613 21.4597 12.738 21.5763 11.7439 22.0438C10.7497 22.5112 9.94334 23.3018 9.45641 24.2866C9.32006 24.5631 9.29871 24.8824 9.39702 25.1746C9.49533 25.4669 9.70532 25.7083 9.98109 25.8462C10.2569 25.9841 10.576 26.0072 10.8688 25.9106C11.1616 25.8139 11.4042 25.6053 11.5436 25.3303C11.7927 24.8133 12.2117 24.3976 12.7305 24.1525C13.2494 23.9074 13.8367 23.8479 14.3941 23.9839C14.724 24.0616 15.8 24.4097 15.8 25.6165C15.8 26.8333 14.3947 27.7718 12.9068 28.7656C11.2313 29.8839 9.33325 31.1513 9.33325 33.25C9.33325 33.5594 9.45617 33.8562 9.67497 34.075C9.89377 34.2938 10.1905 34.4167 10.5 34.4167H16.9668C17.1209 34.4182 17.2738 34.3891 17.4167 34.3312C17.5595 34.2732 17.6895 34.1875 17.799 34.079C17.9086 33.9705 17.9955 33.8414 18.0549 33.6991C18.1142 33.5569 18.1448 33.4042 18.1448 33.2501C18.1448 33.0959 18.1142 32.9433 18.0549 32.801C17.9955 32.6587 17.9086 32.5296 17.799 32.4211C17.6895 32.3126 17.5595 32.2269 17.4167 32.1689C17.2738 32.111 17.1209 32.0819 16.9668 32.0834H12.3446C12.8334 31.6203 13.5243 31.1589 14.2022 30.7059C16.0453 29.4755 18.1335 28.0809 18.1335 25.6165ZM29.1667 29.4583C29.1666 29.1489 29.0437 28.8522 28.8249 28.6334C28.6061 28.4146 28.3094 28.2917 28 28.2917H27.052V22.0937C27.052 21.8521 26.9769 21.6165 26.8372 21.4193C26.6975 21.2222 26.5 21.0733 26.2721 20.9932C26.0441 20.913 25.7969 20.9057 25.5646 20.972C25.3323 21.0384 25.1263 21.1753 24.9751 21.3638L19.0688 28.7287C18.9314 28.9002 18.8453 29.1071 18.8203 29.3255C18.7953 29.5439 18.8326 29.7649 18.9277 29.9631C19.0228 30.1612 19.172 30.3285 19.358 30.4456C19.544 30.5627 19.7593 30.6249 19.9792 30.625H24.7187V33.9063C24.7172 34.0604 24.7463 34.2133 24.8042 34.3562C24.8622 34.499 24.9479 34.629 25.0564 34.7385C25.1649 34.8481 25.294 34.935 25.4363 34.9944C25.5786 35.0537 25.7312 35.0843 25.8854 35.0843C26.0395 35.0843 26.1922 35.0537 26.3344 34.9944C26.4767 34.935 26.6058 34.8481 26.7143 34.7385C26.8228 34.629 26.9085 34.499 26.9665 34.3562C27.0244 34.2133 27.0535 34.0604 27.052 33.9063V30.625H28C28.3094 30.625 28.6061 30.5021 28.8249 30.2833C29.0437 30.0645 29.1667 29.7677 29.1667 29.4583ZM24.7187 28.2917H22.4109L24.7187 25.4132V28.2917ZM35.1378 20.2937C34.9875 20.2633 34.8327 20.2629 34.6823 20.2925C34.5319 20.3221 34.3888 20.3811 34.2613 20.4661C34.1337 20.5511 34.0242 20.6605 33.939 20.788C33.8538 20.9154 33.7947 21.0584 33.7649 21.2088L31.1399 34.3338C31.0792 34.6372 31.1414 34.9523 31.313 35.2097C31.4846 35.4672 31.7514 35.6459 32.0548 35.7067C32.1304 35.7217 32.2074 35.7294 32.2845 35.7294C32.554 35.7291 32.815 35.6356 33.0233 35.4647C33.2316 35.2937 33.3744 35.056 33.4272 34.7918L36.0522 21.6667C36.0824 21.5165 36.0827 21.3619 36.0531 21.2115C36.0234 21.0612 35.9644 20.9182 35.8795 20.7907C35.7946 20.6632 35.6854 20.5537 35.5581 20.4684C35.4308 20.3831 35.288 20.3237 35.1378 20.2937ZM41.1244 34.4173C41.3548 34.4171 41.58 34.3488 41.7717 34.221C41.9634 34.0932 42.113 33.9115 42.2016 33.6989L46.5766 23.1989C46.6506 23.0216 46.6797 22.8288 46.6612 22.6376C46.6427 22.4464 46.5773 22.2627 46.4708 22.1028C46.3643 21.943 46.2199 21.8119 46.0506 21.7213C45.8812 21.6306 45.692 21.5832 45.5 21.5833H39.5937C39.2862 21.5863 38.9924 21.7105 38.776 21.929C38.5597 22.1474 38.4383 22.4425 38.4383 22.7499C38.4383 23.0574 38.5597 23.3525 38.776 23.5709C38.9924 23.7894 39.2862 23.9136 39.5937 23.9166H43.75L40.0483 32.8016C39.9746 32.9788 39.9458 33.1715 39.9644 33.3626C39.983 33.5537 40.0484 33.7372 40.1548 33.897C40.2612 34.0568 40.4053 34.1879 40.5744 34.2787C40.7435 34.3695 40.9324 34.4173 41.1244 34.4177V34.4173Z" fill="#CCCCD0"/>
</svg>
