<svg width="40" height="40" viewBox="0 0 40 40" fill="none" xmlns="http://www.w3.org/2000/svg">
<path d="M20 24.375C22.4162 24.375 24.375 22.4162 24.375 20C24.375 17.5838 22.4162 15.625 20 15.625C17.5838 15.625 15.625 17.5838 15.625 20C15.625 22.4162 17.5838 24.375 20 24.375Z" stroke="#22D96E" stroke-width="2" stroke-linecap="round" stroke-linejoin="round"/>
<path d="M16.875 4.375L15.625 8.125L11.875 10.625L6.875 9.375L4.375 14.375L8.125 18.125V21.875L4.375 25.625L6.875 30.625L11.875 29.375L15.625 31.875L16.875 35.625H23.125L24.375 31.875L28.125 29.375L33.125 30.625L35.625 25.625L31.875 21.875V18.125L35.625 14.375L33.125 9.375L28.125 10.625L24.375 8.125L23.125 4.375H16.875Z" stroke="#22D96E" stroke-width="2" stroke-linecap="round" stroke-linejoin="round"/>
</svg>
