<svg width="40" height="40" viewBox="0 0 40 40" fill="none" xmlns="http://www.w3.org/2000/svg">
<path d="M5.4661 20.2966V11.3983C5.4661 8.12202 8.12202 5.4661 11.3983 5.4661M11.3983 5.4661L14.3644 8.4322L19.7034 6.94915V3.98305L14.3644 2.5L11.3983 5.4661ZM11.3983 26.2288H8.4322M37.5 5.4661L29.5909 8.26321C29.2732 8.37543 28.9386 8.43258 28.6017 8.4322C26.9636 8.4322 25.6356 7.10421 25.6356 5.4661C25.6356 3.828 26.9636 2.5 28.6017 2.5C28.9486 2.5 29.2815 2.55954 29.5909 2.66899L37.5 5.4661ZM5.4661 37.5C3.828 37.5 2.5 36.172 2.5 34.5339V20.2966H8.4322V34.5339C8.4322 36.172 7.10421 37.5 5.4661 37.5Z" stroke="#22D96E" stroke-width="2" stroke-miterlimit="10" stroke-linecap="round" stroke-linejoin="round"/>
</svg>
