<svg width="21" height="21" viewBox="0 0 21 21" fill="none" xmlns="http://www.w3.org/2000/svg">
<g clip-path="url(#clip0_6_255)">
<path d="M10.1692 0.5H10.1642C4.65044 0.5 0.166687 4.985 0.166687 10.5C0.166687 12.6875 0.871687 14.715 2.07044 16.3612L0.824187 20.0763L4.66794 18.8475C6.24919 19.895 8.13544 20.5 10.1692 20.5C15.6829 20.5 20.1667 16.0138 20.1667 10.5C20.1667 4.98625 15.6829 0.5 10.1692 0.5ZM15.9879 14.6213C15.7467 15.3025 14.7892 15.8675 14.0254 16.0325C13.5029 16.1437 12.8204 16.2325 10.5229 15.28C7.58419 14.0625 5.69169 11.0763 5.54419 10.8825C5.40294 10.6887 4.35669 9.30125 4.35669 7.86625C4.35669 6.43125 5.08544 5.7325 5.37919 5.4325C5.62044 5.18625 6.01919 5.07375 6.40169 5.07375C6.52544 5.07375 6.63669 5.08 6.73669 5.085C7.03044 5.0975 7.17794 5.115 7.37169 5.57875C7.61294 6.16 8.20044 7.595 8.27044 7.7425C8.34169 7.89 8.41294 8.09 8.31294 8.28375C8.21919 8.48375 8.13669 8.5725 7.98919 8.7425C7.84169 8.9125 7.70169 9.0425 7.55419 9.225C7.41919 9.38375 7.26669 9.55375 7.43669 9.8475C7.60669 10.135 8.19419 11.0937 9.05919 11.8637C10.1754 12.8575 11.0804 13.175 11.4042 13.31C11.6454 13.41 11.9329 13.3863 12.1092 13.1988C12.3329 12.9575 12.6092 12.5575 12.8904 12.1638C13.0904 11.8813 13.3429 11.8462 13.6079 11.9462C13.8779 12.04 15.3067 12.7462 15.6004 12.8925C15.8942 13.04 16.0879 13.11 16.1592 13.2338C16.2292 13.3575 16.2292 13.9388 15.9879 14.6213Z" fill="#22D96E"/>
</g>
<defs>
<clipPath id="clip0_6_255">
<rect width="20" height="20" fill="white" transform="translate(0.166687 0.5)"/>
</clipPath>
</defs>
</svg>
